<?xml version="1.0" encoding="UTF-8"?>
<svg xmlns="http://www.w3.org/2000/svg" version="1.1" viewBox="0 0 1920 1080">
  <defs>
    <style>
      .cls-1 {
        fill: #fff;
      }
    </style>
  </defs>
  <!-- Generator: Adobe Illustrator 28.7.1, SVG Export Plug-In . SVG Version: 1.2.0 Build 142)  -->
  <g>
    <g id="Calque_1">
      <path class="cls-1" d="M949.98,464.87c-17.1-29.85-33.24-58.04-50.27-87.77,16.97,0,32.18-.26,47.36.25,2.56.09,5.92,3,7.37,5.5,31.64,54.53,63.1,109.15,94.38,163.89,1.41,2.48,2.05,6.84.83,9.14-7.2,13.46-15.06,26.57-23.45,41.11-15.28-26.53-30.13-51.63-44.2-77.15-4.12-7.48-8.53-10.96-17.4-10.36-12.75.85-25.6.22-39.87.22,2.37,4.51,3.82,7.48,5.46,10.34,22.05,38.42,44.02,76.9,66.34,115.17,2.98,5.12,3.01,8.81-.07,13.76-7.38,11.84-14.17,24.04-21.63,36.83-1.74-2.35-3.25-4.02-4.35-5.93-48.81-84.75-97.63-169.5-146.35-254.32-11.64-20.27-4.63-40.9,15.46-47.29,6.23-1.98,9.77-.81,13.07,5.27,13.5,24.84,27.71,49.3,41.32,74.09,3,5.47,6.49,7.63,12.8,7.4,13.61-.5,27.26-.15,43.2-.15Z"/>
      <path class="cls-1" d="M974.72,377.1c16.84,0,31.8-.38,46.72.32,3,.14,6.8,3.79,8.56,6.8,21.29,36.49,42.26,73.16,63.34,109.77,2.03,3.52,4.17,6.97,7.22,12.06,2.57-4.2,4.68-7.39,6.54-10.71,20.62-36.85,41.42-73.61,61.61-110.7,3.94-7.24,8.02-8.71,15.37-6.2,18.81,6.43,26.39,26.59,15.98,45.02-17.25,30.55-34.93,60.86-52.44,91.27-36.03,62.59-72.03,125.2-108.11,187.77-11.26,19.53-31.62,24.53-47.12,11.76-5.19-4.28-7.29-8.09-3-15.36,27.34-46.36,53.9-93.18,81.07-139.64,3.43-5.86,3.24-9.99-.09-15.73-29.79-51.25-59.26-102.69-88.82-154.08-2-3.48-3.9-7.03-6.85-12.35Z"/>
    </g>
  </g>
</svg>